#!OML:ASF F:\VICON\USERDATA\INSTALL\rory3\rory3.ASF
:FULLY-SPECIFIED
:DEGREES


328
root -0.305246 17.9875 30.511 -3.74745 -0.940184 -5.54597
lowerback 9.77257 0.429862 3.44701
upperback 0.524431 1.08099 2.48233
thorax -4.92417 0.483314 0.499093
lowerneck -14.834 -2.62779 -1.88619
upperneck 21.6248 -3.43751 0.996531
head 9.30738 -1.64954 0.233945
rclavicle -1.54151e-014 -4.96962e-015
rhumerus -32.1734 -21.8517 -77.1102
rradius 21.1892
rwrist 11.0176
rhand -19.3461 25.2037
rfingers 7.12502
rthumb 6.97104 -4.66148
lclavicle -1.54151e-014 -4.96962e-015
lhumerus -28.4134 0.767025 83.4738
lradius 27.4163
lwrist 4.08228
lhand -26.8799 23.4751
lfingers 7.12502
lthumb -0.304058 53.4546
rfemur -9.82307 5.63251 32.5265
rtibia 30.8649
rfoot -13.2246 -5.92445
rtoes 11.3428
lfemur -17.3647 2.17498 -13.4184
ltibia 71.5803
lfoot -1.05308 -9.4446
ltoes -1.75725
329
root -0.313158 17.9865 30.6779 -3.74522 -1.0937 -5.44269
lowerback 9.84182 0.541218 3.31746
upperback 0.480747 1.21553 2.3931
thorax -5.00719 0.550295 0.459324
lowerneck -14.738 -2.63076 -1.88204
upperneck 21.6094 -3.45088 1.02564
head 9.28483 -1.65277 0.242982
rclavicle -5.91074e-015 3.18055e-015
rhumerus -31.6994 -21.1221 -77.5654
rradius 21.5442
rwrist 10.6725
rhand -19.5421 25.1631
rfingers 7.12502
rthumb 6.7819 -4.70827
lclavicle -5.91074e-015 3.18055e-015
lhumerus -28.8204 0.626085 83.5792
lradius 27.0065
lwrist 4.60744
lhand -28.2194 17.4641
lfingers 7.12502
lthumb -1.59777 47.4379
rfemur -9.20134 5.51631 32.5213
rtibia 30.8443
rfoot -13.7318 -5.91391
rtoes 10.7359
lfemur -18.463 2.37802 -13.5561
ltibia 71.2357
lfoot -2.22844 -8.75405
ltoes -1.68271
330
root -0.317303 17.9784 30.8451 -3.72444 -1.32381 -5.61819
lowerback 9.78808 0.663149 3.5816
upperback 0.545032 1.39913 2.35284
thorax -4.89967 0.636265 0.244639
lowerneck -14.8364 -2.63549 -1.83603
upperneck 21.4596 -3.48 1.09247
head 9.25186 -1.65495 0.254157
rclavicle -2.38945e-014 8.94531e-016
rhumerus -31.0722 -20.2986 -78.1412
rradius 22.1939
rwrist 10.1066
rhand -19.5132 23.9731
rfingers 7.12502
rthumb 6.80972 -5.8974
lclavicle -2.38945e-014 8.94531e-016
lhumerus -29.0485 0.551611 83.6286
lradius 26.5952
lwrist 5.62906
lhand -27.5646 20.2039
lfingers 7.12502
lthumb -0.965394 50.1815
rfemur -8.54907 5.45761 32.7876
rtibia 30.8123
rfoot -14.225 -5.8147
rtoes 10.7695
lfemur -19.5326 2.61855 -13.3995
ltibia 70.782
lfoot -3.27468 -8.1904
ltoes -2.12561
331
root -0.31618 17.9711 31.0169 -3.67776 -1.63496 -5.95278
lowerback 9.70917 0.760571 4.0755
upperback 0.533733 1.579 2.358
thorax -4.85086 0.714714 -0.0499837
lowerneck -14.5633 -2.59726 -1.79332
upperneck 21.2051 -3.44659 1.13204
head 9.11234 -1.63422 0.269781
rclavicle -2.99233e-014 -4.03533e-014
rhumerus -30.5745 -19.1258 -78.7198
rradius 22.8124
rwrist 9.12627
rhand -19.502 23.3406
rfingers 7.12502
rthumb 6.82052 -6.52955
lclavicle -2.99233e-014 -4.03533e-014
lhumerus -29.5845 0.67948 83.6171
lradius 26.5624
lwrist 6.22563
lhand -27.2006 20.0704
lfingers 7.12502
lthumb -0.613865 50.0493
rfemur -7.87445 5.41037 33.1835
rtibia 30.7576
rfoot -14.7222 -5.58589
rtoes 10.903
lfemur -20.4829 2.91745 -13.1006
ltibia 70.1699
lfoot -4.33944 -7.41195
ltoes -3.56963
332
root -0.314898 17.9625 31.1814 -3.63389 -1.92888 -6.1979
lowerback 9.83517 0.830826 4.42909
upperback 0.489061 1.72107 2.35535
thorax -4.95421 0.77439 -0.272354
lowerneck -14.408 -2.63954 -1.82596
upperneck 21.063 -3.50535 1.16472
head 9.03676 -1.66241 0.282048
rclavicle -6.11884e-015 -3.01159e-014
rhumerus -29.9755 -18.0935 -79.257
rradius 23.0534
rwrist 7.98454
rhand -19.9006 23.8772
rfingers 7.12502
rthumb 6.4358 -6.00505
lclavicle -6.11884e-015 -3.01159e-014
lhumerus -30.0637 0.99754 83.5219
lradius 26.7564
lwrist 6.396
lhand -26.9078 21.257
lfingers 7.12502
lthumb -0.331059 51.2365
rfemur -7.23803 5.51275 33.4939
rtibia 30.6546
rfoot -15.1297 -5.5233
rtoes 10.894
lfemur -21.5534 3.16593 -12.9143
ltibia 69.3936
lfoot -4.96797 -6.62847
ltoes -2.83703
333
root -0.314964 17.9504 31.3407 -3.57149 -2.23108 -6.57733
lowerback 10.2129 0.910231 4.84269
upperback 0.350089 1.90947 2.42258
thorax -5.29545 0.849406 -0.468056
lowerneck -14.5702 -2.71811 -1.89115
upperneck 21.2227 -3.6066 1.19674
head 9.12559 -1.70982 0.288339
rclavicle -2.95847e-015 -3.69739e-014
rhumerus -29.5435 -17.4138 -79.5253
rradius 23.8978
rwrist 8.54069
rhand -19.3214 21.4761
rfingers 7.12502
rthumb 6.99495 -8.38834
lclavicle -2.95847e-015 -3.69739e-014
lhumerus -30.5112 1.69163 83.2991
lradius 26.8356
lwrist 6.07101
lhand -26.1568 24.2588
lfingers 7.12502
lthumb 0.394282 54.2382
rfemur -6.61752 5.5973 33.978
rtibia 30.483
rfoot -15.486 -5.5242
rtoes 10.4763
lfemur -22.7051 3.36064 -12.541
ltibia 68.4654
lfoot -5.354 -6.33146
ltoes -6.53473
334
root -0.313808 17.9409 31.506 -3.38189 -2.39517 -6.88298
lowerback 10.1564 0.97629 5.25298
upperback 0.271441 2.04544 2.43202
thorax -5.32771 0.904338 -0.706072
lowerneck -14.6471 -2.70361 -1.93779
upperneck 21.2669 -3.60241 1.317
head 9.15842 -1.69762 0.336348
rclavicle -9.64106e-015 -5.36719e-015
rhumerus -29.1235 -16.5172 -79.9333
rradius 24.7784
rwrist 7.84538
rhand -18.9495 19.8227
rfingers 7.12502
rthumb 7.35386 -10.0295
lclavicle -9.64106e-015 -5.36719e-015
lhumerus -31.0003 2.21075 83.1401
lradius 26.8969
lwrist 5.5928
lhand -26.1801 25.3229
lfingers 7.12502
lthumb 0.3718 55.3023
rfemur -6.20269 5.47254 34.3399
rtibia 30.3942
rfoot -16.0432 -5.47882
rtoes 10.0394
lfemur -23.9023 3.4211 -12.2722
ltibia 67.4383
lfoot -5.85038 -5.70641
ltoes -6.60685
335
root -0.312524 17.94 31.6653 -3.06324 -2.47493 -7.1245
lowerback 9.86582 1.05298 5.65054
upperback 0.304346 2.16718 2.4086
thorax -5.10879 0.96004 -0.961929
lowerneck -14.8179 -2.67569 -1.8744
upperneck 21.1541 -3.57023 1.30464
head 9.1489 -1.67789 0.32386
rclavicle -1.66622e-014 -6.85807e-015
rhumerus -28.5378 -15.6792 -80.3586
rradius 25.6692
rwrist 6.8144
rhand -18.8388 18.911
rfingers 7.12502
rthumb 7.46074 -10.9374
lclavicle -1.66622e-014 -6.85807e-015
lhumerus -31.2814 2.35413 83.133
lradius 26.8893
lwrist 5.56482
lhand -26.6837 24.2525
lfingers 7.12502
lthumb -0.114556 54.2322
rfemur -5.92885 5.32759 34.6038
rtibia 30.2779
rfoot -16.6099 -5.54151
rtoes 9.89323
lfemur -25.2255 3.36691 -12.1348
ltibia 66.1572
lfoot -6.14634 -4.87868
ltoes -7.07746
336
root -0.309211 17.9057 31.8171 -3.01554 -2.64896 -7.43185
lowerback 10.1375 1.13749 6.06093
upperback 0.298309 2.35028 2.44069
thorax -5.24345 1.03641 -1.1895
lowerneck -15.0627 -2.73868 -1.8719
upperneck 21.1474 -3.6439 1.26296
head 9.19232 -1.71487 0.296791
rclavicle -1.30142e-015 -2.21148e-015
rhumerus -27.9422 -15.0387 -80.6167
rradius 26.183
rwrist 6.12514
rhand -19.1791 19.8971
rfingers 7.12502
rthumb 7.13227 -9.96274
lclavicle -1.30142e-015 -2.21148e-015
lhumerus -31.5559 2.49376 83.1655
lradius 26.6498
lwrist 5.43447
lhand -27.2198 24.3287
lfingers 7.12502
lthumb -0.63238 54.3075
rfemur -5.36756 5.26489 34.9853
rtibia 30.2476
rfoot -17.2591 -5.53895
rtoes 10.1739
lfemur -25.6777 3.48789 -11.8386
ltibia 64.9322
lfoot -7.31687 -3.62691
ltoes -10.2494
337
root -0.305835 17.9003 31.9796 -3.02877 -2.88385 -7.33069
lowerback 10.3187 1.18091 5.97578
upperback 0.340003 2.40768 2.39064
thorax -5.29873 1.06508 -1.20711
lowerneck -15.2583 -2.75307 -1.89104
upperneck 21.1473 -3.66378 1.29683
head 9.22994 -1.72063 0.306338
rclavicle 4.10692e-015 3.08116e-015
rhumerus -27.1967 -14.3367 -80.9582
rradius 26.4973
rwrist 5.52035
rhand -19.375 22.1061
rfingers 7.12502
rthumb 6.94318 -7.76
lclavicle 4.10692e-015 3.08116e-015
lhumerus -31.8846 2.95843 83.0502
lradius 26.4385
lwrist 5.03069
lhand -27.2424 24.6152
lfingers 7.12502
lthumb -0.654234 54.5939
rfemur -4.6567 5.24655 34.9033
rtibia 30.1582
rfoot -17.8506 -5.32469
rtoes 11.4165
lfemur -26.4279 3.38777 -11.9806
ltibia 63.2126
lfoot -7.4492 -2.90161
ltoes -6.99718
338
root -0.305737 17.8841 32.1437 -3.00154 -3.08675 -7.33993
lowerback 10.3463 1.24558 6.02418
upperback 0.382742 2.49637 2.34668
thorax -5.25944 1.10867 -1.2928
lowerneck -15.3576 -2.81055 -2.01781
upperneck 21.1163 -3.74299 1.43966
head 9.24467 -1.75137 0.365075
rclavicle 1.28317e-014 -2.06239e-015
rhumerus -26.6547 -13.68 -81.2454
rradius 27.1645
rwrist 4.86357
rhand -19.2517 22.8932
rfingers 7.12502
rthumb 7.06215 -6.96895
lclavicle 1.28317e-014 -2.06239e-015
lhumerus -32.2519 3.42127 82.8872
lradius 26.0953
lwrist 4.67421
lhand -27.9306 21.99
lfingers 7.12502
lthumb -1.31891 51.9657
rfemur -4.08538 5.25864 34.9572
rtibia 30.1044
rfoot -18.2797 -5.27618
rtoes 11.9743
lfemur -26.9187 3.45509 -12.0516
ltibia 61.5156
lfoot -7.84045 -1.78317
ltoes -8.36062
339
root -0.30394 17.8762 32.3082 -2.92481 -3.2773 -7.46301
lowerback 10.4325 1.32104 6.19417
upperback 0.409958 2.62415 2.38471
thorax -5.26555 1.16785 -1.36793
lowerneck -15.5311 -2.84862 -2.25521
upperneck 21.0303 -3.75841 1.56179
head 9.25487 -1.763 0.442305
rclavicle 1.9644e-014 2.6662e-014
rhumerus -26.0331 -12.9786 -81.375
rradius 27.6971
rwrist 4.27932
rhand -19.3117 23.2108
rfingers 7.12502
rthumb 7.00429 -6.65329
lclavicle 1.9644e-014 2.6662e-014
lhumerus -32.5921 3.97377 82.8493
lradius 25.7223
lwrist 4.41796
lhand -29.1768 19.4852
lfingers 7.12502
lthumb -2.52245 49.45
rfemur -3.51395 5.31736 35.1257
rtibia 29.9825
rfoot -18.6687 -5.49006
rtoes 11.597
lfemur -27.3481 3.38777 -11.9556
ltibia 59.5783
lfoot -7.54487 -0.829055
ltoes -6.38531
340
root -0.296244 17.8632 32.4756 -2.68537 -3.50171 -7.58314
lowerback 10.2845 1.42375 6.40976
upperback 0.450496 2.77083 2.39456
thorax -5.12054 1.23994 -1.49238
lowerneck -15.8465 -2.78264 -1.93949
upperneck 20.9635 -3.64606 1.16611
head 9.27296 -1.72726 0.264689
rclavicle -3.7443e-015 -8.3738e-015
rhumerus -25.2609 -12.2668 -81.5219
rradius 27.952
rwrist 3.63461
rhand -19.5262 24.1351
rfingers 7.12502
rthumb 6.79725 -5.73577
lclavicle -3.7443e-015 -8.3738e-015
lhumerus -32.7359 4.93276 82.5865
lradius 25.4341
lwrist 3.44532
lhand -28.9132 20.2678
lfingers 7.12502
lthumb -2.2679 50.2355
rfemur -3.03234 5.26272 35.2282
rtibia 29.829
rfoot -18.9191 -5.52089
rtoes 10.8604
lfemur -27.8414 3.28663 -11.8733
ltibia 57.5652
lfoot -7.25834 0.112631
ltoes -4.70671
341
root -0.290457 17.8478 32.6399 -2.47651 -3.62778 -7.46084
lowerback 10.2446 1.50028 6.33381
upperback 0.315291 2.86444 2.3218
thorax -5.23407 1.28123 -1.53998
lowerneck -15.4671 -2.70317 -1.69266
upperneck 20.6502 -3.55643 0.980122
head 9.08413 -1.69021 0.178803
rclavicle -1.10885e-014 -2.45251e-014
rhumerus -24.9778 -11.5804 -81.609
rradius 28.4182
rwrist 3.06694
rhand -19.7929 24.8486
rfingers 7.12502
rthumb 6.53976 -5.03041
lclavicle -1.10885e-014 -2.45251e-014
lhumerus -33.2627 5.79728 82.2043
lradius 25.1494
lwrist 2.20059
lhand -28.1416 21.8049
lfingers 7.12502
lthumb -1.52269 51.7793
rfemur -2.52391 5.146 35.0594
rtibia 29.5561
rfoot -19.1489 -5.38072
rtoes 11.2043
lfemur -28.2849 3.04161 -12.0601
ltibia 55.3196
lfoot -6.9745 1.10028
ltoes -4.27578
342
root -0.282274 17.8336 32.8094 -2.4431 -3.85487 -7.52503
lowerback 10.4114 1.55737 6.48737
upperback 0.177394 2.97884 2.27934
thorax -5.45601 1.32337 -1.6943
lowerneck -14.9925 -2.74756 -1.80365
upperneck 20.356 -3.63632 1.16606
head 8.90287 -1.72047 0.259
rclavicle 6.50806e-015 1.56916e-014
rhumerus -24.7501 -10.9608 -81.7255
rradius 28.86
rwrist 2.58315
rhand -19.885 25.0181
rfingers 7.12502
rthumb 6.45082 -4.86365
lclavicle 6.50806e-015 1.56916e-014
lhumerus -33.9487 6.10504 82.0331
lradius 24.7845
lwrist 2.23756
lhand -28.8645 21.866
lfingers 7.12502
lthumb -2.22081 51.8342
rfemur -1.77528 5.04424 35.1019
rtibia 29.2819
rfoot -19.4589 -5.28977
rtoes 11.2917
lfemur -28.5054 2.86944 -11.9729
ltibia 52.8548
lfoot -6.62434 1.80806
ltoes -4.17733
